# Blender 4.5.3 LTS
# www.blender.org
mtllib DeliveryBox.mtl
o deliverybox
v -2.743597 3.638907 -0.142721
v -2.743597 3.638907 0.377322
v 2.761101 3.638907 0.377322
v 2.761101 3.638907 -0.142721
v 2.761101 2.811504 0.377322
v 2.761101 2.811504 -0.142721
v -2.743597 2.811504 -0.142721
v -2.743597 2.811504 0.377322
v -2.743597 0.505242 2.035114
v -2.743597 3.638905 2.035114
v -2.743597 0.505242 -1.800492
v -2.743597 3.638905 -1.800492
v 2.761101 0.505242 2.035114
v 2.761101 3.638905 2.035114
v 2.761101 0.505242 -1.800492
v 2.761101 3.638905 -1.800492
v 2.761101 2.811502 2.035114
v 2.761101 2.811502 -1.800492
v -2.743597 2.811502 -1.800492
v -2.743597 2.811502 2.035114
v -2.743597 3.638905 -0.142711
v -2.743597 3.638905 0.377332
v 2.761101 3.638905 0.377332
v 2.761101 3.638905 -0.142711
v 2.761101 2.811502 0.377332
v 2.761101 2.811502 -0.142711
v -2.743597 2.811502 -0.142711
v -2.743597 2.811502 0.377332
v 2.532401 0.736657 2.035114
v 2.532401 1.615429 2.035114
v -0.464723 1.615429 2.035114
v -0.464723 0.736657 2.035114
v 0.534318 0.736657 2.035114
v 1.533360 0.736657 2.035114
v 1.533360 1.615429 2.035114
v 0.534318 1.615429 2.035114
v 0.409683 0.807608 2.035114
v 0.409683 1.544478 2.035114
v -0.340088 1.544478 2.035114
v -0.340088 0.807608 2.035114
v 2.407766 0.807608 2.035114
v 2.407766 1.544478 2.035114
v 1.657995 1.544478 2.035114
v 1.657995 0.807608 2.035114
v 1.408724 0.807608 2.035114
v 1.408724 1.544478 2.035114
v 0.658953 1.544478 2.035114
v 0.658953 0.807608 2.035114
v 0.409683 0.807610 2.035119
v 0.409683 1.544480 2.035119
v -0.340088 1.544480 2.035119
v -0.340088 0.807610 2.035119
v 2.407765 0.807610 2.035119
v 2.407765 1.544480 2.035119
v 1.657995 1.544480 2.035119
v 1.657995 0.807610 2.035119
v 1.408724 0.807610 2.035119
v 1.408724 1.544480 2.035119
v 0.658953 1.544480 2.035119
v 0.658953 0.807610 2.035119
v -0.244028 0.891070 2.035119
v -0.244028 0.948290 2.035119
v 0.318436 0.948290 2.035119
v 0.317219 0.891070 2.035119
v -0.114978 0.986031 2.035119
v -0.112543 1.307440 2.035119
v -0.038278 1.306223 2.035119
v -0.041930 0.986031 2.035119
v 0.118774 1.303788 2.035119
v 0.115122 0.984814 2.035119
v 0.189387 0.984814 2.035119
v 0.188169 1.306223 2.035119
v -0.150284 1.341529 2.035119
v -0.080890 1.441360 2.035119
v -0.007842 1.342746 2.035119
v 0.094381 1.376780 2.035119
v 0.114127 1.401677 2.035119
v 0.150428 1.447448 2.035119
v 0.066423 1.341529 2.035119
v 0.230780 1.340311 2.035119
v 0.390542 0.837120 2.035119
v -0.315406 1.518088 2.035119
v -0.316065 0.828482 2.035119
v 0.381744 1.514408 2.035119
v 0.774172 1.205952 2.035119
v 0.840118 1.227257 2.035119
v 0.873598 1.225229 2.035119
v 0.933456 1.198850 2.035119
v 0.957806 1.197836 2.035119
v 1.004475 1.227258 2.035119
v 1.023751 1.226243 2.035119
v 1.025780 0.957388 2.035119
v 1.013606 0.933039 2.035119
v 0.993839 0.918920 2.035119
v 0.966936 0.922893 2.035119
v 0.933161 0.962122 2.035119
v 0.924326 0.946228 2.035119
v 0.947519 0.936732 2.035119
v 0.932442 0.915792 2.035119
v 0.953748 0.896515 2.035119
v 0.989257 0.890428 2.035119
v 1.024766 0.903617 2.035119
v 1.039984 0.928981 2.035119
v 1.050130 0.955359 2.035119
v 1.050129 1.227258 2.035119
v 1.074479 1.227258 2.035119
v 1.119119 1.198850 2.035119
v 1.147526 1.199865 2.035119
v 1.206370 1.232330 2.035119
v 1.236806 1.231316 2.035119
v 1.305795 1.201894 2.035119
v 1.267243 1.284072 2.035119
v 1.171875 1.358134 2.035119
v 1.044042 1.390600 2.035119
v 1.040998 1.424080 2.035119
v 1.023751 1.427123 2.035119
v 1.024766 1.391614 2.035119
v 0.910122 1.363207 2.035119
v 0.811711 1.291174 2.035119
v 1.379583 1.447487 2.035119
v 1.337266 0.837052 2.035119
v 0.692916 1.444694 2.035119
v 0.765362 1.510248 2.035119
v 1.376265 0.837121 2.035119
v 0.689620 0.835904 2.035119
v 0.693271 1.510375 2.035119
v 1.379918 1.509158 2.035119
v 1.781949 1.350736 2.035119
v 1.885941 1.349045 2.035119
v 1.882559 1.310154 2.035119
v 1.879178 1.257736 2.035119
v 1.984859 1.352427 2.035119
v 2.282460 1.351582 2.035119
v 2.283305 1.319454 2.035119
v 2.271469 1.273800 2.035119
v 2.240187 1.212927 2.035119
v 2.179315 1.155436 2.035119
v 2.082933 1.117390 2.035119
v 2.051650 1.105554 2.035119
v 2.050806 0.925472 2.035119
v 1.908633 1.150353 2.035119
v 2.196224 0.924626 2.035119
v 2.197068 0.896726 2.035119
v 1.863959 0.894189 2.035119
v 1.865649 0.923780 2.035119
v 2.015284 0.925147 2.035119
v 2.015546 0.981244 2.035119
v 2.016141 1.108935 2.035119
v 1.990777 1.121617 2.035119
v 1.935822 1.132608 2.035119
v 1.855505 1.185026 2.035119
v 1.802240 1.264499 2.035119
v 2.373037 1.481690 2.035119
v 1.694580 1.487296 2.035119
v 1.694664 1.510409 2.035119
v 2.372788 1.509192 2.035119
v 1.692230 0.840808 2.035119
v 2.378876 0.837155 2.035119
vn -1.0000 -0.0000 -0.0000
vn 1.0000 -0.0000 -0.0000
vn -0.0000 1.0000 -0.0000
vn -0.0000 -0.0000 1.0000
vn -0.0000 -0.0000 -1.0000
vn -0.0000 -1.0000 -0.0000
vt 0.757379 0.479723
vt 0.757379 0.458191
vt 0.845986 0.479723
vt 0.845986 0.458191
vt 0.151299 0.345257
vt 0.151299 0.345257
vt 0.151299 0.353370
vt 0.151299 0.353370
vt 0.151299 0.356281
vt 0.163276 0.353370
vt 0.163276 0.356281
vt 0.163276 0.353370
vt 0.163276 0.345257
vt 0.162779 0.349163
vt 0.162779 0.346071
vt 0.156258 0.346071
vt 0.156258 0.349163
vt 0.160605 0.346071
vt 0.158431 0.346071
vt 0.158431 0.349163
vt 0.160605 0.349163
vt 0.163276 0.345257
vt 0.158160 0.348913
vt 0.158160 0.346321
vt 0.156529 0.348913
vt 0.156529 0.346321
vt 0.162508 0.348913
vt 0.162508 0.346321
vt 0.160876 0.348913
vt 0.160876 0.346321
vt 0.160334 0.348913
vt 0.160334 0.346321
vt 0.158703 0.348913
vt 0.158703 0.346321
vt 0.109032 0.345535
vt 0.108860 0.345964
vt 0.102509 0.345838
vt 0.102293 0.345535
vt 0.126990 0.345535
vt 0.126990 0.356242
vt 0.126678 0.355330
vt 0.126730 0.345964
vt 0.120559 0.346017
vt 0.120580 0.355411
vt 0.120251 0.356242
vt 0.120251 0.345535
vt 0.114560 0.346930
vt 0.114697 0.347298
vt 0.114460 0.347357
vt 0.114296 0.347168
vt 0.102515 0.355859
vt 0.102293 0.356242
vt 0.103156 0.347579
vt 0.103156 0.346747
vt 0.108201 0.346747
vt 0.108212 0.347579
vt 0.109032 0.356242
vt 0.108781 0.355805
vt 0.104973 0.348127
vt 0.105006 0.352780
vt 0.104338 0.352798
vt 0.104316 0.348127
vt 0.157962 0.346816
vt 0.157681 0.346944
vt 0.157519 0.346944
vt 0.157019 0.346949
vt 0.156738 0.346816
vt 0.107052 0.348110
vt 0.107041 0.352780
vt 0.106417 0.352745
vt 0.106384 0.348110
vt 0.111272 0.356242
vt 0.112228 0.355745
vt 0.117752 0.355729
vt 0.117749 0.354833
vt 0.118011 0.356242
vt 0.158099 0.348807
vt 0.156583 0.348820
vt 0.156942 0.348199
vt 0.157093 0.348550
vt 0.157252 0.348203
vt 0.157517 0.348411
vt 0.157596 0.348572
vt 0.157771 0.348195
vt 0.104623 0.354744
vt 0.103999 0.353293
vt 0.105279 0.353311
vt 0.106198 0.353805
vt 0.105947 0.353293
vt 0.107424 0.353275
vt 0.106702 0.354832
vt 0.106375 0.354167
vt 0.117719 0.345964
vt 0.117369 0.345962
vt 0.118011 0.345535
vt 0.156581 0.346394
vt 0.156738 0.346615
vt 0.157024 0.348079
vt 0.157185 0.348075
vt 0.157474 0.348323
vt 0.158119 0.346425
vt 0.157959 0.346615
vt 0.114560 0.354021
vt 0.114733 0.354006
vt 0.114706 0.354493
vt 0.114551 0.354537
vt 0.159498 0.348375
vt 0.159496 0.348500
vt 0.158934 0.348793
vt 0.158777 0.348793
vt 0.158776 0.348562
vt 0.158953 0.347722
vt 0.159035 0.348022
vt 0.159249 0.348275
vt 0.113530 0.353608
vt 0.112645 0.352561
vt 0.114788 0.347682
vt 0.114569 0.347711
vt 0.114268 0.347136
vt 0.114241 0.346738
vt 0.111548 0.345946
vt 0.111577 0.354792
vt 0.111272 0.345535
vt 0.160178 0.346425
vt 0.160263 0.346425
vt 0.160271 0.348572
vt 0.160110 0.347708
vt 0.159960 0.347811
vt 0.159894 0.347815
vt 0.159766 0.347701
vt 0.159704 0.347697
vt 0.159607 0.347797
vt 0.159554 0.347797
vt 0.159554 0.346841
vt 0.158769 0.346420
vt 0.159532 0.346748
vt 0.159498 0.346659
vt 0.159421 0.346612
vt 0.159344 0.346634
vt 0.159298 0.346702
vt 0.159280 0.346809
vt 0.159299 0.346864
vt 0.111581 0.355747
vt 0.160271 0.348789
vt 0.159534 0.348490
vt 0.159540 0.348372
vt 0.159819 0.348258
vt 0.160026 0.347997
vt 0.120581 0.355747
vt 0.126676 0.355729
vt 0.121365 0.353427
vt 0.121548 0.352174
vt 0.122026 0.351019
vt 0.122504 0.350515
vt 0.122748 0.350257
vt 0.123242 0.350098
vt 0.123470 0.349913
vt 0.123465 0.348058
vt 0.123462 0.347243
vt 0.123782 0.347247
vt 0.123789 0.349864
vt 0.124070 0.350036
vt 0.124937 0.350589
vt 0.125484 0.351424
vt 0.125765 0.352309
vt 0.125871 0.352972
vt 0.125864 0.353439
vt 0.123189 0.353451
vt 0.122239 0.352075
vt 0.122269 0.352837
vt 0.122300 0.353402
vt 0.161656 0.347381
vt 0.161600 0.347426
vt 0.161481 0.347464
vt 0.161422 0.347527
vt 0.161654 0.346932
vt 0.122117 0.347223
vt 0.122102 0.346793
vt 0.125096 0.346830
vt 0.125089 0.347235
vt 0.162432 0.348692
vt 0.162432 0.348789
vt 0.160956 0.348793
vt 0.160956 0.348712
vt 0.161146 0.348232
vt 0.161372 0.348226
vt 0.161365 0.348089
vt 0.161358 0.347904
vt 0.161587 0.348238
vt 0.162235 0.348235
vt 0.162237 0.348122
vt 0.160951 0.346438
vt 0.162445 0.346425
vt 0.162211 0.347961
vt 0.162143 0.347747
vt 0.162011 0.347545
vt 0.161801 0.347411
vt 0.161733 0.347369
vt 0.161731 0.346736
vt 0.162047 0.346733
vt 0.162049 0.346634
vt 0.161324 0.346626
vt 0.161328 0.346730
vt 0.161654 0.346734
vt 0.161306 0.347649
vt 0.161190 0.347928
vt 0.114690 0.356345
vt 0.157413 0.348199
vt 0.157178 0.346949
vt 0.157527 0.348066
vt 0.157678 0.348075
vt 0.114040 0.347210
vt 0.113922 0.346827
vt 0.113866 0.347411
vt 0.113737 0.347780
vt 0.113657 0.347549
vt 0.113730 0.347107
vt 0.159373 0.346727
vt 0.159435 0.346716
vt 0.159474 0.346762
vt 0.159501 0.346848
vt 0.159496 0.347794
vt 0.159454 0.347797
vt 0.159353 0.347694
vt 0.159300 0.347697
vt 0.159170 0.347790
vt 0.159097 0.347797
vt 0.159330 0.346775
vt 0.112308 0.351323
vt 0.112900 0.351633
vt 0.113201 0.351603
vt 0.113739 0.351220
vt 0.113958 0.351205
vt 0.114377 0.351633
vt 0.114551 0.351618
vt 0.114788 0.351633
vt 0.115007 0.351633
vt 0.115408 0.351220
vt 0.115663 0.351235
vt 0.116192 0.351706
vt 0.116466 0.351692
vt 0.117086 0.351264
vt 0.116739 0.352458
vt 0.115882 0.353534
s 0
usemtl Box
f 1/1/1 7/2/1 8/2/1 2/1/1
f 3/3/2 5/4/2 6/4/2 4/3/2
f 2/1/3 3/3/3 4/3/3 1/1/3
f 11/5/1 9/6/1 20/7/1 28/8/1 27/8/1 19/8/1
f 27/8/1 21/9/1 12/9/1 19/8/1
f 18/10/2 16/11/2 24/11/2 26/10/2
f 25/10/2 23/11/2 14/11/2 17/12/2
f 20/7/1 10/9/1 22/9/1 28/8/1
f 13/13/4 17/12/4 30/14/4 29/15/4
f 20/7/4 9/6/4 32/16/4 31/17/4
f 9/6/4 13/13/4 29/15/4 34/18/4 33/19/4 32/16/4
f 17/12/4 20/7/4 31/17/4 36/20/4 35/21/4 30/14/4
f 19/8/5 18/10/5 15/22/5 11/5/5
f 11/5/6 15/22/6 13/13/6 9/6/6
f 23/11/3 22/9/3 10/9/3 14/11/3
f 14/11/4 10/9/4 20/7/4 17/12/4
f 12/9/5 16/11/5 18/10/5 19/8/5
f 16/11/3 12/9/3 21/9/3 24/11/3
f 33/19/4 36/20/4 38/23/4 37/24/4
f 36/20/4 31/17/4 39/25/4 38/23/4
f 31/17/4 32/16/4 40/26/4 39/25/4
f 32/16/4 33/19/4 37/24/4 40/26/4
f 29/15/4 30/14/4 42/27/4 41/28/4
f 30/14/4 35/21/4 43/29/4 42/27/4
f 35/21/4 34/18/4 44/30/4 43/29/4
f 34/18/4 29/15/4 41/28/4 44/30/4
f 34/18/4 35/21/4 46/31/4 45/32/4
f 35/21/4 36/20/4 47/33/4 46/31/4
f 36/20/4 33/19/4 48/34/4 47/33/4
f 33/19/4 34/18/4 45/32/4 48/34/4
f 15/22/2 18/10/2 26/10/2 25/10/2 17/12/2 13/13/2
f 49/35/4 81/36/4 83/37/4 52/38/4
f 53/39/4 54/40/4 153/41/4 158/42/4 157/43/4 154/44/4 55/45/4 56/46/4
f 102/47/4 103/48/4 93/49/4 94/50/4
f 52/38/4 83/37/4 82/51/4 51/52/4
f 62/53/4 61/54/4 64/55/4 63/56/4
f 50/57/4 84/58/4 81/36/4 49/35/4
f 68/59/4 67/60/4 66/61/4 65/62/4
f 63/63/4 71/64/4 70/65/4 65/66/4 62/67/4
f 71/68/4 72/69/4 69/70/4 70/71/4
f 59/72/4 123/73/4 127/74/4 120/75/4 58/76/4
f 84/77/4 82/78/4 73/79/4 74/80/4 75/81/4 77/82/4 78/83/4 80/84/4
f 74/85/4 73/86/4 75/87/4
f 76/88/4 79/89/4 80/90/4 78/91/4 77/92/4
f 58/76/4 120/75/4 124/93/4 121/94/4 57/95/4
f 82/78/4 83/96/4 61/97/4 62/67/4 65/66/4 66/98/4 67/99/4 76/100/4 77/82/4 75/81/4 73/79/4
f 83/96/4 81/101/4 63/63/4 64/102/4 61/97/4
f 117/103/4 114/104/4 115/105/4 116/106/4
f 117/107/4 116/108/4 123/109/4 126/110/4 122/111/4 85/112/4 119/113/4 118/114/4
f 118/115/4 119/116/4 117/103/4
f 104/117/4 92/118/4 93/49/4 103/48/4
f 94/119/4 101/120/4 102/47/4
f 57/95/4 121/94/4 125/121/4 122/122/4 59/72/4 60/123/4
f 121/124/4 124/125/4 120/126/4 111/127/4 110/128/4 109/129/4 108/130/4 107/131/4 106/132/4 105/133/4 104/134/4
f 122/111/4 125/135/4 121/124/4 104/134/4 103/136/4 102/137/4 101/138/4 100/139/4 99/140/4 97/141/4 96/142/4 85/112/4
f 122/122/4 126/143/4 123/73/4 59/72/4
f 120/126/4 127/144/4 123/109/4 116/108/4 115/145/4 114/146/4 113/147/4 112/148/4 111/127/4
f 55/45/4 154/44/4 155/149/4 156/150/4 153/41/4 54/40/4
f 128/151/4 152/152/4 151/153/4 141/154/4 150/155/4 149/156/4 148/157/4 147/158/4 146/159/4 140/160/4 139/161/4 138/162/4 137/163/4 136/164/4 135/165/4 134/166/4 133/167/4 132/168/4 131/169/4 130/170/4 129/171/4
f 148/172/4 149/173/4 150/174/4 141/175/4 147/176/4
f 146/159/4 145/177/4 144/178/4 143/179/4 142/180/4 140/160/4
f 153/181/4 156/182/4 155/183/4 154/184/4 128/185/4 129/186/4 130/187/4 131/188/4 132/189/4 133/190/4 134/191/4
f 154/184/4 157/192/4 158/193/4 153/181/4 134/191/4 135/194/4 136/195/4 137/196/4 138/197/4 139/198/4 140/199/4 142/200/4 143/201/4 144/202/4 145/203/4 146/204/4 147/176/4 141/175/4 151/205/4 152/206/4 128/185/4
f 84/207/4 50/57/4 51/52/4 82/51/4
f 81/101/4 84/77/4 80/84/4 79/208/4 76/100/4 67/99/4 68/209/4 65/66/4 70/65/4 69/210/4 72/211/4 71/64/4 63/63/4
f 95/212/4 100/213/4 101/120/4 94/119/4
f 98/214/4 96/215/4 97/216/4 99/217/4
f 95/212/4 98/214/4 99/217/4 100/213/4
f 95/218/4 94/219/4 93/220/4 92/221/4 91/222/4 90/223/4 89/224/4 88/225/4 87/226/4 86/227/4 85/112/4 96/142/4 98/228/4
f 119/116/4 85/229/4 86/230/4 87/231/4 88/232/4 89/233/4 90/234/4 91/235/4 92/118/4 104/117/4 105/236/4 106/237/4 107/238/4 108/239/4 109/240/4 110/241/4 111/242/4 112/243/4 113/244/4 114/104/4 117/103/4
